<?xml version="1.0" encoding="UTF-8"?>
<svg version="1.1" xmlns="http://www.w3.org/2000/svg" width="225" height="225">
<path d="M0 0 C1.22332031 -0.04898437 2.44664062 -0.09796875 3.70703125 -0.1484375 C8.20822647 0.52850993 9.38888987 1.83542114 12.1875 5.375 C12.68147703 8.0907903 12.86594252 10.18157641 12.82241821 12.89001465 C12.83021817 13.63804903 12.83801812 14.3860834 12.84605443 15.15678549 C12.8659713 17.65906367 12.85021237 20.15982039 12.83447266 22.66210938 C12.84124896 24.45767606 12.85015216 26.25323579 12.86102295 28.04878235 C12.88382143 32.92280675 12.87497768 37.7963021 12.85912752 42.67033577 C12.8464714 47.77026931 12.85820784 52.87015746 12.86605835 57.97009277 C12.87515574 66.53466935 12.86316461 75.09903037 12.83935547 83.66357422 C12.81214406 93.56634785 12.82095816 103.46860678 12.8484875 113.37136793 C12.87117497 121.87258292 12.8743804 130.37364293 12.86129415 138.87487841 C12.85349767 143.95277881 12.85246352 149.03043727 12.86897659 154.10832214 C12.88341679 158.88228138 12.87340788 163.65557684 12.84450531 168.42946434 C12.83789208 170.18181951 12.83979624 171.93423051 12.85081863 173.68656349 C12.8644772 176.07845894 12.84735773 178.46822571 12.82241821 180.85998535 C12.83357182 181.55405408 12.84472543 182.24812282 12.85621703 182.96322393 C12.77979083 186.7399649 12.23830733 188.31095811 9.86095238 191.30757904 C6.42628349 193.96366018 4.42451123 193.98536179 0.125 193.875 C-1.08285156 193.8646875 -2.29070312 193.854375 -3.53515625 193.84375 C-6.96836118 193.35270758 -8.40555351 192.82235087 -10.8125 190.375 C-11.75387255 187.55088235 -11.92975382 185.84581968 -11.91015625 182.92578125 C-11.90693359 182.07822266 -11.90371094 181.23066406 -11.90039062 180.35742188 C-11.89201172 179.47634766 -11.88363281 178.59527344 -11.875 177.6875 C-11.87048828 176.79482422 -11.86597656 175.90214844 -11.86132812 174.98242188 C-11.84954983 172.77988013 -11.83310164 170.57747401 -11.8125 168.375 C-12.65103516 168.18558838 -13.48957031 167.99617676 -14.35351562 167.80102539 C-29.61024284 164.28461574 -44.75820729 160.33273391 -59.91914368 156.42865372 C-62.33493003 155.80672554 -64.75087568 155.18541987 -67.16687012 154.56430054 C-91.36906874 148.34179594 -115.5614941 142.08175409 -139.74581909 135.79014969 C-142.02133614 135.19820816 -144.29691938 134.60652161 -146.57250977 134.01486206 C-156.32208773 131.47932606 -166.06884696 128.93320975 -175.8125 126.375 C-176.86732071 126.09828083 -176.86732071 126.09828083 -177.94345093 125.81597137 C-182.17016213 124.70680399 -186.39582036 123.59375931 -190.62007904 122.47528648 C-192.55456825 121.96371235 -194.48982863 121.45505712 -196.42510986 120.94648743 C-197.58774353 120.63761093 -198.7503772 120.32873444 -199.94824219 120.01049805 C-200.96408386 119.74190475 -201.97992554 119.47331146 -203.02655029 119.19657898 C-210.37643988 117.02909018 -210.37643988 117.02909018 -212.8125 113.375 C-213.03169409 110.88042392 -213.14043055 108.49991738 -213.1484375 106.00390625 C-213.1550943 105.2851683 -213.1617511 104.56643036 -213.16860962 103.82591248 C-213.17872573 102.30706336 -213.18342696 100.78816988 -213.18310547 99.26928711 C-213.1874784 96.94896034 -213.22380317 94.63053706 -213.26171875 92.31054688 C-213.26758732 90.83333983 -213.27155644 89.35612376 -213.2734375 87.87890625 C-213.28780853 87.18712784 -213.30217957 86.49534943 -213.31698608 85.78260803 C-213.2867776 82.58809814 -213.13827641 80.77496801 -211.09143066 78.26197815 C-208.62272563 76.21786486 -206.94942555 75.52986343 -203.86376953 74.74755859 C-202.87045624 74.48810455 -201.87714294 74.22865051 -200.85372925 73.96133423 C-199.22843796 73.55895035 -199.22843796 73.55895035 -197.5703125 73.1484375 C-196.42031769 72.85158051 -195.27032288 72.55472351 -194.08547974 72.24887085 C-191.60565294 71.60953807 -189.12433734 70.97595801 -186.64172363 70.34753418 C-181.61527232 69.07093188 -176.59999255 67.75317062 -171.58378601 66.43699646 C-167.53607067 65.37534371 -163.48616955 64.3221925 -159.43579102 63.27075195 C-158.73004346 63.08753922 -158.0242959 62.9043265 -157.29716206 62.71556187 C-155.83938828 62.33716991 -154.38160637 61.9588093 -152.92381668 61.58047867 C-146.62906098 59.94655471 -140.33487671 58.31042925 -134.04059792 56.67466927 C-132.35230661 56.23594076 -130.66400158 55.79726503 -128.97568321 55.35864067 C-115.01737882 51.73218947 -101.06251936 48.09264112 -87.10887909 44.44828796 C-80.4738426 42.71563086 -73.83846225 40.98429094 -67.20309448 39.25290298 C-61.74434333 37.82839627 -56.28583286 36.40297936 -50.82781982 34.97564697 C-45.66470559 33.6254579 -40.50100676 32.2775281 -35.33686256 30.93128395 C-33.41779028 30.4305462 -31.49894235 29.92894781 -29.58032799 29.42645836 C-26.95199667 28.73820773 -24.32290699 28.05293395 -21.69360352 27.3684082 C-20.52966977 27.06246703 -20.52966977 27.06246703 -19.34222221 26.75034523 C-14.04065075 25.375 -14.04065075 25.375 -11.8125 25.375 C-11.84730469 24.06144531 -11.88210937 22.74789062 -11.91796875 21.39453125 C-11.94611466 19.65886699 -11.97341396 17.92318885 -12 16.1875 C-12.02513672 15.32318359 -12.05027344 14.45886719 -12.07617188 13.56835938 C-12.1322835 8.68664778 -12.06740183 5.307678 -8.8125 1.375 C-5.89201261 -0.08524369 -3.25193916 0.08853447 0 0 Z " fill="#080706" transform="translate(212.8125,15.625)"/>
<path d="M0 0 C0 34.98 0 69.96 0 106 C-9 105 -9 105 -17 102 C-17.33 81.21 -17.66 60.42 -18 39 C-20.475 39.495 -20.475 39.495 -23 40 C-23.33 59.8 -23.66 79.6 -24 100 C-33.003019 98.87462262 -33.003019 98.87462262 -37.1796875 97.765625 C-38.57574219 97.39824219 -38.57574219 97.39824219 -40 97.0234375 C-40.94875 96.76820313 -41.8975 96.51296875 -42.875 96.25 C-43.78507812 96.01023437 -44.69515625 95.77046875 -45.6328125 95.5234375 C-54.77888172 93.09947926 -63.88265453 90.53259596 -73 88 C-73 65.23 -73 42.46 -73 19 C-29.5 7 -29.5 7 -24 7 C-23.67 13.6 -23.34 20.2 -23 27 C-19.36380344 28.08084521 -19.36380344 28.08084521 -17 28 C-17 20.41 -17 12.82 -17 5 C-3.66666667 0 -3.66666667 0 0 0 Z " fill="#FD7F28" transform="translate(161,59)"/>
<path d="M0 0 C2.97 0 5.94 0 9 0 C9 58.74 9 117.48 9 178 C6.03 178 3.06 178 0 178 C-0.33 144.01 -0.66 110.02 -1 75 C-2.65 74.67 -4.3 74.34 -6 74 C-6.33 99.74 -6.66 125.48 -7 152 C-11.90820372 151.38647453 -16.07625472 150.85579383 -20.7421875 149.625 C-21.74507812 149.36203125 -22.74796875 149.0990625 -23.78125 148.828125 C-24.8021875 148.55484375 -25.823125 148.2815625 -26.875 148 C-27.91914063 147.72671875 -28.96328125 147.4534375 -30.0390625 147.171875 C-37.71067995 145.14466003 -37.71067995 145.14466003 -40 144 C-40 107.37 -40 70.74 -40 33 C-34.06 31.35 -28.12 29.7 -22 28 C-17.58086884 26.74430147 -17.58086884 26.74430147 -13.1640625 25.48046875 C-11 25 -11 25 -7 25 C-7 29.62 -7 34.24 -7 39 C-5.35 39 -3.7 39 -2 39 C-0.39048457 35.78096915 -0.75765252 32.25161168 -0.68359375 28.7109375 C-0.66281265 27.89251373 -0.64203156 27.07408997 -0.62062073 26.23086548 C-0.55515188 23.61233034 -0.49625274 20.99369361 -0.4375 18.375 C-0.39431224 16.60155193 -0.35069786 14.82811419 -0.30664062 13.0546875 C-0.19947324 8.70322954 -0.09819831 4.35166923 0 0 Z " fill="#C3C2C0" transform="translate(209,24)"/>
<path d="M0 0 C0 21.45 0 42.9 0 65 C-8.415 63.02 -8.415 63.02 -17 61 C-17.33 49.78 -17.66 38.56 -18 27 C-19.65 26.67 -21.3 26.34 -23 26 C-23.33 36.56 -23.66 47.12 -24 58 C-34.125 56.875 -34.125 56.875 -37.78540039 55.87670898 C-38.60557144 55.65655624 -39.42574249 55.4364035 -40.27076721 55.20957947 C-41.12114059 54.97412918 -41.97151398 54.73867889 -42.84765625 54.49609375 C-43.74495956 54.2533522 -44.64226288 54.01061066 -45.5667572 53.76051331 C-48.40041253 52.99241767 -51.23144784 52.2151291 -54.0625 51.4375 C-55.9965783 50.9114968 -57.93082171 50.38610032 -59.86523438 49.86132812 C-64.57910674 48.58233918 -69.2893164 47.29091871 -74 46 C-74 37.09 -74 28.18 -74 19 C-69.03417969 17.67578125 -69.03417969 17.67578125 -64.06835938 16.3515625 C-63.38797607 16.17012695 -62.70759277 15.98869141 -62.0065918 15.80175781 C-58.99450684 14.99853516 -58.99450684 14.99853516 -55.98242188 14.1953125 C-55.33069 14.02140991 -54.67895813 13.84750732 -54.00747681 13.66833496 C-52.68312776 13.31539293 -51.35856127 12.96326583 -50.03378296 12.61193848 C-46.6278179 11.70755577 -43.22701925 10.78837737 -39.83251953 9.84179688 C-38.82119713 9.56308746 -38.82119713 9.56308746 -37.78944397 9.27874756 C-35.92820959 8.76522219 -34.06866106 8.2455978 -32.20922852 7.72558594 C-29.33039677 7.07470059 -26.93290916 6.84670846 -24 7 C-24 9.64 -24 12.28 -24 15 C-22.33388095 15.042721 -20.66617115 15.04063832 -19 15 C-17.33657163 13.33657163 -17.63951903 11.2174291 -17.4375 8.9375 C-17.35371094 8.01839844 -17.26992188 7.09929687 -17.18359375 6.15234375 C-17.09271484 5.08693359 -17.09271484 5.08693359 -17 4 C-14.5424552 3.33030409 -12.08405076 2.6641232 -9.625 2 C-8.57699219 1.71382813 -8.57699219 1.71382813 -7.5078125 1.421875 C-2.2265625 0 -2.2265625 0 0 0 Z " fill="#FC07F3" transform="translate(81,80)"/>
<path d="M0 0 C2.97 0 5.94 0 9 0 C9 58.74 9 117.48 9 178 C6.03 178 3.06 178 0 178 C-0.33 144.01 -0.66 110.02 -1 75 C-2.32 74.34 -3.64 73.68 -5 73 C-4.67 70.36 -4.34 67.72 -4 65 C-4.66 65 -5.32 65 -6 65 C-8.3797234 61.43041489 -8.29830341 59.67281698 -8.3125 55.4375 C-8.32925781 54.28121094 -8.34601563 53.12492187 -8.36328125 51.93359375 C-8.24339844 50.96550781 -8.12351563 49.99742188 -8 49 C-7.01 48.34 -6.02 47.68 -5 47 C-4.26656572 43.93443402 -4.26656572 43.93443402 -4 41 C-4.99 40.67 -5.98 40.34 -7 40 C-5 39 -5 39 -2 39 C-0.39048457 35.78096915 -0.75765252 32.25161168 -0.68359375 28.7109375 C-0.66281265 27.89251373 -0.64203156 27.07408997 -0.62062073 26.23086548 C-0.55515188 23.61233034 -0.49625274 20.99369361 -0.4375 18.375 C-0.39431224 16.60155193 -0.35069786 14.82811419 -0.30664062 13.0546875 C-0.19947324 8.70322954 -0.09819831 4.35166923 0 0 Z " fill="#FCC212" transform="translate(209,24)"/>
<path d="M0 0 C0 34.98 0 69.96 0 106 C-9 105 -9 105 -17 102 C-17.33 81.21 -17.66 60.42 -18 39 C-18.66 38.67 -19.32 38.34 -20 38 C-20 35.03 -20 32.06 -20 29 C-19.01 28.67 -18.02 28.34 -17 28 C-17 20.41 -17 12.82 -17 5 C-3.66666667 0 -3.66666667 0 0 0 Z " fill="#9DD4E4" transform="translate(161,59)"/>
<path d="M0 0 C0.33 0 0.66 0 1 0 C1 22.77 1 45.54 1 69 C8.26 69.33 15.52 69.66 23 70 C25.64 70.33 28.28 70.66 31 71 C30.98428955 70.13721436 30.9685791 69.27442871 30.95239258 68.38549805 C30.90124045 65.18190733 30.8636384 61.97852485 30.83520508 58.7746582 C30.82012603 57.38852081 30.7996595 56.00243106 30.77368164 54.61645508 C30.73726284 52.62341854 30.72186982 50.63003277 30.70703125 48.63671875 C30.6913208 47.43748779 30.67561035 46.23825684 30.65942383 45.00268555 C31 42 31 42 34 39 C33.67 65.4 33.34 91.8 33 119 C28.09179628 118.38647453 23.92374528 117.85579383 19.2578125 116.625 C18.25492188 116.36203125 17.25203125 116.0990625 16.21875 115.828125 C15.1978125 115.55484375 14.176875 115.2815625 13.125 115 C12.08085937 114.72671875 11.03671875 114.4534375 9.9609375 114.171875 C2.28932005 112.14466003 2.28932005 112.14466003 0 111 C0 74.37 0 37.74 0 0 Z " fill="#BDDA21" transform="translate(169,57)"/>
<path d="M0 0 C0.33 0 0.66 0 1 0 C1 13.86 1 27.72 1 42 C13.10031455 42.6161171 13.10031455 42.6161171 25.20092773 43.22631836 C26.73682733 43.30561559 28.27271669 43.38511128 29.80859375 43.46484375 C30.58303833 43.50291138 31.35748291 43.540979 32.15539551 43.5802002 C37.48661711 43.86035066 42.67426979 44.4082522 48 45 C48 36.42 48 27.84 48 19 C48.33 19 48.66 19 49 19 C49 39.13 49 59.26 49 80 C39.996981 78.87462262 39.996981 78.87462262 35.8203125 77.765625 C34.42425781 77.39824219 34.42425781 77.39824219 33 77.0234375 C32.05125 76.76820313 31.1025 76.51296875 30.125 76.25 C29.21492188 76.01023437 28.30484375 75.77046875 27.3671875 75.5234375 C18.22111828 73.09947926 9.11734547 70.53259596 0 68 C0 45.56 0 23.12 0 0 Z " fill="#FC823B" transform="translate(88,79)"/>
<path d="M0 0 C0 21.45 0 42.9 0 65 C-8.415 63.02 -8.415 63.02 -17 61 C-17.33 49.78 -17.66 38.56 -18 27 C-20.475 26.01 -20.475 26.01 -23 25 C-22.96744792 22.98177083 -22.93489583 20.96354167 -22.90234375 18.9453125 C-22.87350758 16.91814596 -22.87350758 16.91814596 -24 15 C-23.195625 15.020625 -22.39125 15.04125 -21.5625 15.0625 C-19.06645115 15.29633621 -19.06645115 15.29633621 -18 14 C-17.76712992 12.31816052 -17.58735834 10.6287584 -17.4375 8.9375 C-17.35371094 8.01839844 -17.26992188 7.09929687 -17.18359375 6.15234375 C-17.12300781 5.44207031 -17.06242187 4.73179688 -17 4 C-14.5424552 3.33030409 -12.08405076 2.6641232 -9.625 2 C-8.57699219 1.71382813 -8.57699219 1.71382813 -7.5078125 1.421875 C-2.2265625 0 -2.2265625 0 0 0 Z " fill="#E3E6F2" transform="translate(81,80)"/>
<path d="M0 0 C2.97 0 5.94 0 9 0 C9 58.74 9 117.48 9 178 C6.03 178 3.06 178 0 178 C0 144.01 0 110.02 0 75 C0.33 75 0.66 75 1 75 C1 87.21 1 99.42 1 112 C2.98 112 4.96 112 7 112 C7 75.37 7 38.74 7 1 C5.02 1 3.04 1 1 1 C1 13.21 1 25.42 1 38 C0.01 38.495 0.01 38.495 -1 39 C-0.67 26.13 -0.34 13.26 0 0 Z " fill="#D76A2F" transform="translate(209,24)"/>
<path d="M0 0 C0.66 0.33 1.32 0.66 2 1 C1.01 1.33 0.02 1.66 -1 2 C-1 7.28 -1 12.56 -1 18 C1.48273437 18.13277344 3.96546875 18.26554687 6.5234375 18.40234375 C8.95950276 18.53420288 11.39552421 18.66684538 13.83154297 18.79956055 C15.50923323 18.89054682 17.18696707 18.98073378 18.86474609 19.07006836 C27.59995376 19.53570331 36.30429156 20.01708387 45 21 C44.98839844 20.15695313 44.97679687 19.31390625 44.96484375 18.4453125 C44.95582031 17.34960938 44.94679687 16.25390625 44.9375 15.125 C44.92589844 14.03445312 44.91429687 12.94390625 44.90234375 11.8203125 C45 9 45 9 46 7 C46.66 7.33 47.32 7.66 48 8 C47.67 18.56 47.34 29.12 47 40 C36.875 38.875 36.875 38.875 33.21459961 37.87670898 C32.39442856 37.65655624 31.57425751 37.4364035 30.72923279 37.20957947 C29.87885941 36.97412918 29.02848602 36.73867889 28.15234375 36.49609375 C27.25504044 36.2533522 26.35773712 36.01061066 25.4332428 35.76051331 C22.59958747 34.99241767 19.76855216 34.2151291 16.9375 33.4375 C15.0034217 32.9114968 13.06917829 32.38610032 11.13476562 31.86132812 C6.42089326 30.58233918 1.7106836 29.29091871 -3 28 C-3 19.09 -3 10.18 -3 1 C-2.01 0.67 -1.02 0.34 0 0 Z " fill="#FCA6B4" transform="translate(10,98)"/>
<path d="M0 0 C2.31 0 4.62 0 7 0 C7 0.33 7 0.66 7 1 C9.97 1 12.94 1 16 1 C16 13.87 16 26.74 16 40 C7 39 7 39 0 37 C0 24.79 0 12.58 0 0 Z " fill="#FDF003" transform="translate(145,125)"/>
<path d="M0 0 C0.66 0 1.32 0 2 0 C2 21.45 2 42.9 2 65 C-6.415 63.02 -6.415 63.02 -15 61 C-15 54.07 -15 47.14 -15 40 C-9.72 40.33 -4.44 40.66 1 41 C0.67 27.47 0.34 13.94 0 0 Z " fill="#BAC2D3" transform="translate(79,80)"/>
<path d="M0 0 C1.98 0 3.96 0 6 0 C6 20.79 6 41.58 6 63 C4.02 63 2.04 63 0 63 C0 42.21 0 21.42 0 0 Z " fill="#ED1C24" transform="translate(210,137)"/>
<path d="M0 0 C1.50543691 3.01087383 1.08083502 6.09007112 1.02172852 9.38720703 C1.0073172 10.52881287 1.0073172 10.52881287 0.99261475 11.69348145 C0.95957148 14.21501768 0.91925954 16.73638352 0.87890625 19.2578125 C0.85461033 21.00372716 0.83076651 22.74964817 0.80735779 24.49557495 C0.74446425 29.09551205 0.67541256 33.6953371 0.60510254 38.29516602 C0.53446664 42.98708993 0.46962131 47.67909341 0.40429688 52.37109375 C0.27521663 61.58081661 0.13963426 70.79043153 0 80 C-1.32 80 -2.64 80 -4 80 C-4 79.34 -4 78.68 -4 78 C-3.34 78 -2.68 78 -2 78 C-2.11743621 71.7702015 -2.24227034 65.54058315 -2.37231445 59.31103516 C-2.41569752 57.19062687 -2.45737007 55.07018288 -2.49731445 52.94970703 C-2.55493543 49.90646592 -2.61865325 46.8634051 -2.68359375 43.8203125 C-2.70030624 42.86818878 -2.71701874 41.91606506 -2.73423767 40.93508911 C-2.75418289 40.05432709 -2.77412811 39.17356506 -2.79467773 38.26611328 C-2.81022202 37.48889923 -2.8257663 36.71168518 -2.84178162 35.91091919 C-2.88783251 33.91443065 -2.88783251 33.91443065 -4 32 C-3.34 32 -2.68 32 -2 32 C-2.01047363 31.13721436 -2.02094727 30.27442871 -2.03173828 29.38549805 C-2.06583983 26.18189479 -2.09090857 22.9783841 -2.10986328 19.7746582 C-2.1199157 18.38855952 -2.1335597 17.00248201 -2.15087891 15.61645508 C-2.17515952 13.6233025 -2.18542031 11.62999467 -2.1953125 9.63671875 C-2.20578613 8.43748779 -2.21625977 7.23825684 -2.22705078 6.00268555 C-2 3 -2 3 0 0 Z " fill="#C46D32" transform="translate(202,96)"/>
<path d="M0 0 C1.2065625 0.0309375 1.2065625 0.0309375 2.4375 0.0625 C3.66934766 2.52619532 3.60482342 4.2519501 3.625 7 C3.63917969 7.87527344 3.65335938 8.75054687 3.66796875 9.65234375 C3.4375 12.0625 3.4375 12.0625 1.4375 15.0625 C-0.2125 14.7325 -1.8625 14.4025 -3.5625 14.0625 C-3.58935938 11.91673363 -3.60883088 9.77087355 -3.625 7.625 C-3.63660156 6.43003906 -3.64820313 5.23507813 -3.66015625 4.00390625 C-3.53008299 0.08609959 -3.53008299 0.08609959 0 0 Z " fill="#030200" transform="translate(205.5625,72.9375)"/>
<path d="M0 0 C0.66 0.33 1.32 0.66 2 1 C1.67 11.56 1.34 22.12 1 33 C-1.97 32.67 -4.94 32.34 -8 32 C-8 31.67 -8 31.34 -8 31 C-5.69 31.33 -3.38 31.66 -1 32 C-1 26.72 -1 21.44 -1 16 C-2.65 15.67 -4.3 15.34 -6 15 C-6 14.67 -6 14.34 -6 14 C-4.35 14 -2.7 14 -1 14 C-1.01160156 13.15695313 -1.02320313 12.31390625 -1.03515625 11.4453125 C-1.04417969 10.34960938 -1.05320312 9.25390625 -1.0625 8.125 C-1.07410156 7.03445312 -1.08570313 5.94390625 -1.09765625 4.8203125 C-1 2 -1 2 0 0 Z " fill="#C76E32" transform="translate(56,105)"/>
<path d="M0 0 C0.66 0.33 1.32 0.66 2 1 C1.01 1.33 0.02 1.66 -1 2 C-1 7.28 -1 12.56 -1 18 C-0.01 18.33 0.98 18.66 2 19 C1.34 19.33 0.68 19.66 0 20 C-0.40729228 22.32156597 -0.74438677 24.6568787 -1 27 C-0.01 27.33 0.98 27.66 2 28 C1.34 28.33 0.68 28.66 0 29 C-0.99 28.67 -1.98 28.34 -3 28 C-3 19.09 -3 10.18 -3 1 C-2.01 0.67 -1.02 0.34 0 0 Z " fill="#CE7736" transform="translate(10,98)"/>
<path d="M0 0 C0 4.29 0 8.58 0 13 C-0.66 13 -1.32 13 -2 13 C-2 9.37 -2 5.74 -2 2 C-3.98 2.33 -5.96 2.66 -8 3 C-8 2.34 -8 1.68 -8 1 C-5.10765685 0.17361624 -3.11257569 0 0 0 Z " fill="#C67A37" transform="translate(202,49)"/>
</svg>
