<?xml version="1.0" encoding="UTF-8"?>
<svg version="1.1" xmlns="http://www.w3.org/2000/svg" width="225" height="225">
<path d="M0 0 C0.71873795 -0.0066568 1.43747589 -0.0133136 2.17799377 -0.02017212 C3.69684289 -0.03028823 5.21573637 -0.03498946 6.73461914 -0.03466797 C9.05494591 -0.0390409 11.37336919 -0.07536567 13.69335938 -0.11328125 C15.17056642 -0.11914982 16.64778249 -0.12311894 18.125 -0.125 C18.81677841 -0.13937103 19.50855682 -0.15374207 20.22129822 -0.16854858 C23.41580811 -0.1383401 25.22893824 0.01016109 27.7419281 2.05700684 C29.78604139 4.52571187 30.47404282 6.19901195 31.25634766 9.28466797 C31.5158017 10.27798126 31.77525574 11.27129456 32.04257202 12.29470825 C32.4449559 13.91999954 32.4449559 13.91999954 32.85546875 15.578125 C33.15232574 16.72811981 33.44918274 17.87811462 33.7550354 19.06295776 C34.39436818 21.54278456 35.02794824 24.02410016 35.65637207 26.50671387 C36.93297437 31.53316518 38.25073563 36.54844495 39.56690979 41.56465149 C40.62856254 45.61236683 41.68171375 49.66226795 42.7331543 53.71264648 C42.91636703 54.41839404 43.09957975 55.1241416 43.28834438 55.85127544 C43.66673634 57.30904922 44.04509695 58.76683113 44.42342758 60.22462082 C46.05735154 66.51937652 47.693477 72.81356079 49.32923698 79.10783958 C49.76796549 80.79613089 50.20664122 82.48443592 50.64526558 84.17275429 C54.27171678 98.13105868 57.91126513 112.08591814 61.55561829 126.03955841 C63.28827539 132.6745949 65.01961531 139.30997525 66.75100327 145.94534302 C68.17550998 151.40409417 69.60092689 156.86260464 71.02825928 162.32061768 C72.37844835 167.48373191 73.72637815 172.64743074 75.0726223 177.81157494 C75.57336005 179.73064722 76.07495844 181.64949515 76.57744789 183.56810951 C77.26569852 186.19644083 77.9509723 188.82553051 78.63549805 191.45483398 C78.94143922 192.61876773 78.94143922 192.61876773 79.25356102 193.80621529 C80.62890625 199.10778675 80.62890625 199.10778675 80.62890625 201.3359375 C81.94246094 201.30113281 83.25601563 201.26632813 84.609375 201.23046875 C86.34503926 201.20232284 88.0807174 201.17502354 89.81640625 201.1484375 C90.68072266 201.12330078 91.54503906 201.09816406 92.43554688 201.07226562 C97.31725847 201.016154 100.69622825 201.08103567 104.62890625 204.3359375 C106.08914994 207.25642489 105.91537178 209.89649834 106.00390625 213.1484375 C106.05289063 214.37175781 106.101875 215.59507812 106.15234375 216.85546875 C105.47539632 221.35666397 104.16848511 222.53732737 100.62890625 225.3359375 C97.91311595 225.82991453 95.82232984 226.01438002 93.1138916 225.97085571 C92.36585722 225.97865567 91.61782285 225.98645562 90.84712076 225.99449193 C88.34484258 226.0144088 85.84408586 225.99864987 83.34179688 225.98291016 C81.54623019 225.98968646 79.75067046 225.99858966 77.9551239 226.00946045 C73.0810995 226.03225893 68.20760415 226.02341518 63.33357048 226.00756502 C58.23363694 225.9949089 53.13374879 226.00664534 48.03381348 226.01449585 C39.4692369 226.02359324 30.90487588 226.01160211 22.34033203 225.98779297 C12.4375584 225.96058156 2.53529947 225.96939566 -7.36746168 225.996925 C-15.86867667 226.01961247 -24.36973668 226.0228179 -32.87097216 226.00973165 C-37.94887256 226.00193517 -43.02653102 226.00090102 -48.10441589 226.01741409 C-52.87837513 226.03185429 -57.65167059 226.02184538 -62.42555809 225.99294281 C-64.17791326 225.98632958 -65.93032426 225.98823374 -67.68265724 225.99925613 C-70.07455269 226.0129147 -72.46431946 225.99579523 -74.8560791 225.97085571 C-75.8971822 225.98758613 -75.8971822 225.98758613 -76.95931768 226.00465453 C-80.73605865 225.92822833 -82.30705186 225.38674483 -85.30367279 223.00938988 C-87.95975393 219.57472099 -87.98145554 217.57294873 -87.87109375 213.2734375 C-87.86078125 212.06558594 -87.85046875 210.85773438 -87.83984375 209.61328125 C-87.34880133 206.18007632 -86.81844462 204.74288399 -84.37109375 202.3359375 C-81.5469761 201.39456495 -79.84191343 201.21868368 -76.921875 201.23828125 C-76.07431641 201.24150391 -75.22675781 201.24472656 -74.35351562 201.24804688 C-73.47244141 201.25642578 -72.59136719 201.26480469 -71.68359375 201.2734375 C-70.34458008 201.28020508 -70.34458008 201.28020508 -68.97851562 201.28710938 C-66.77597388 201.29888767 -64.57356776 201.31533586 -62.37109375 201.3359375 C-62.18168213 200.49740234 -61.99227051 199.65886719 -61.79711914 198.79492188 C-58.28070949 183.53819466 -54.32882766 168.39023021 -50.42474747 153.22929382 C-49.80281929 150.81350747 -49.18151362 148.39756182 -48.56039429 145.98156738 C-42.33788969 121.77936876 -36.07784784 97.5869434 -29.78624344 73.40261841 C-29.19430191 71.12710136 -28.60261536 68.85151812 -28.01095581 66.57592773 C-25.47541981 56.82634977 -22.9293035 47.07959054 -20.37109375 37.3359375 C-20.09437458 36.28111679 -20.09437458 36.28111679 -19.81206512 35.20498657 C-18.70289774 30.97827537 -17.58985306 26.75261714 -16.47138023 22.52835846 C-15.9598061 20.59386925 -15.45115087 18.65860887 -14.94258118 16.72332764 C-14.63370468 15.56069397 -14.32482819 14.3980603 -14.0065918 13.20019531 C-13.7379985 12.18435364 -13.46940521 11.16851196 -13.19267273 10.12188721 C-10.809008 2.0389515 -8.50515197 0.02728365 0 0 Z " fill="#080706" transform="translate(103.37109375,-0.3359375)"/>
<path d="M0 0 C22.77 0 45.54 0 69 0 C81 43.5 81 43.5 81 49 C71.1 49.495 71.1 49.495 61 50 C59.91915479 53.63619656 59.91915479 53.63619656 60 56 C67.59 56 75.18 56 83 56 C86 64 86 64 88 73 C53.02 73 18.04 73 -18 73 C-17 64 -17 64 -14 56 C6.79 55.67 27.58 55.34 49 55 C48.67 53.35 48.34 51.7 48 50 C18.3 49.505 18.3 49.505 -12 49 C-10.87462262 39.996981 -10.87462262 39.996981 -9.765625 35.8203125 C-9.52070312 34.88960937 -9.27578125 33.95890625 -9.0234375 33 C-8.76820312 32.05125 -8.51296875 31.1025 -8.25 30.125 C-8.01023437 29.21492188 -7.77046875 28.30484375 -7.5234375 27.3671875 C-5.09947926 18.22111828 -2.53259596 9.11734547 0 0 Z " fill="#FD7F28" transform="translate(78,88)"/>
<path d="M0 0 C36.63 0 73.26 0 111 0 C112.65 5.94 114.3 11.88 116 18 C117.25569853 22.41913116 117.25569853 22.41913116 118.51953125 26.8359375 C119 29 119 29 119 33 C114.38 33 109.76 33 105 33 C105 34.65 105 36.3 105 38 C107.08204358 40.08204358 111.5338556 39.25821292 114.41015625 39.31640625 C115.67320839 39.3475779 115.67320839 39.3475779 116.96177673 39.37937927 C119.66193179 39.44496812 122.36218717 39.50380276 125.0625 39.5625 C126.88868241 39.60567637 128.71485454 39.64929036 130.54101562 39.69335938 C135.02723992 39.80065894 139.5135655 39.90189966 144 40 C144 42.97 144 45.94 144 49 C85.26 49 26.52 49 -34 49 C-34 46.03 -34 43.06 -34 40 C16.985 39.505 16.985 39.505 69 39 C69.33 37.35 69.66 35.7 70 34 C44.26 33.67 18.52 33.34 -8 33 C-7.38647453 28.09179628 -6.85579383 23.92374528 -5.625 19.2578125 C-5.36203125 18.25492188 -5.0990625 17.25203125 -4.828125 16.21875 C-4.55484375 15.1978125 -4.2815625 14.176875 -4 13.125 C-3.72671875 12.08085937 -3.4534375 11.03671875 -3.171875 9.9609375 C-1.14466003 2.28932005 -1.14466003 2.28932005 0 0 Z " fill="#C3C1C0" transform="translate(57,169)"/>
<path d="M0 0 C8.91 0 17.82 0 27 0 C28.6015625 6.00585938 30.203125 12.01171875 31.8046875 18.01757812 C32.06554138 18.99517593 32.06554138 18.99517593 32.33166504 19.99252319 C32.68460707 21.31687224 33.03673417 22.64143873 33.38806152 23.96621704 C34.29244423 27.3721821 35.21162263 30.77298075 36.15820312 34.16748047 C36.43691254 35.17880287 36.43691254 35.17880287 36.72125244 36.21055603 C37.23477781 38.07179041 37.7544022 39.93133894 38.27441406 41.79077148 C38.92529941 44.66960323 39.15329154 47.06709084 39 50 C36.36 50 33.72 50 31 50 C30.957279 51.66611905 30.95936168 53.33382885 31 55 C32.66342837 56.66342837 34.7825709 56.36048097 37.0625 56.5625 C38.691875 56.706875 40.32125 56.85125 42 57 C43.32 62.61 44.64 68.22 46 74 C24.55 74 3.1 74 -19 74 C-17.68 68.39 -16.36 62.78 -15 57 C-3.78 56.67 7.44 56.34 19 56 C19.33 54.35 19.66 52.7 20 51 C9.44 50.67 -1.12 50.34 -12 50 C-10.875 39.875 -10.875 39.875 -9.87670898 36.21459961 C-9.65655624 35.39442856 -9.4364035 34.57425751 -9.20957947 33.72923279 C-8.97412918 32.87885941 -8.73867889 32.02848602 -8.49609375 31.15234375 C-8.2533522 30.25504044 -8.01061066 29.35773712 -7.76051331 28.4332428 C-6.99241767 25.59958747 -6.2151291 22.76855216 -5.4375 19.9375 C-4.9114968 18.0034217 -4.38610032 16.06917829 -3.86132812 14.13476562 C-2.58233918 9.42089326 -1.29091871 4.7106836 0 0 Z " fill="#FC07F3" transform="translate(99,7)"/>
<path d="M0 0 C1.15628906 -0.01675781 2.31257813 -0.03351563 3.50390625 -0.05078125 C4.47199219 0.06910156 5.44007813 0.18898437 6.4375 0.3125 C7.4275 1.7975 7.4275 1.7975 8.4375 3.3125 C11.50306598 4.04593428 11.50306598 4.04593428 14.4375 4.3125 C14.7675 3.3225 15.0975 2.3325 15.4375 1.3125 C16.4375 3.3125 16.4375 3.3125 17.4375 7.3125 C36.2475 7.8075 36.2475 7.8075 55.4375 8.3125 C55.4375 11.2825 55.4375 14.2525 55.4375 17.3125 C-3.3025 17.3125 -62.0425 17.3125 -122.5625 17.3125 C-122.5625 14.3425 -122.5625 11.3725 -122.5625 8.3125 C-71.5775 7.8175 -71.5775 7.8175 -19.5625 7.3125 C-18.9025 5.9925 -18.2425 4.6725 -17.5625 3.3125 C-14.9225 3.6425 -12.2825 3.9725 -9.5625 4.3125 C-9.5625 3.6525 -9.5625 2.9925 -9.5625 2.3125 C-5.99291489 -0.0672234 -4.23531698 0.01419659 0 0 Z " fill="#FCC212" transform="translate(145.5625,200.6875)"/>
<path d="M0 0 C2.97 0 5.94 0 9 0 C9.495 1.485 9.495 1.485 10 3 C17.59 3 25.18 3 33 3 C36 11 36 11 38 20 C3.02 20 -31.96 20 -68 20 C-67 11 -67 11 -64 3 C-43.21 2.67 -22.42 2.34 -1 2 C-0.67 1.34 -0.34 0.68 0 0 Z " fill="#9DD4E4" transform="translate(128,141)"/>
<path d="M0 0 C36.63 0 73.26 0 111 0 C111 0.33 111 0.66 111 1 C88.23 1 65.46 1 42 1 C41.67 8.26 41.34 15.52 41 23 C40.67 25.64 40.34 28.28 40 31 C40.86278564 30.98428955 41.72557129 30.9685791 42.61450195 30.95239258 C45.81809267 30.90124045 49.02147515 30.8636384 52.2253418 30.83520508 C53.61147919 30.82012603 54.99756894 30.7996595 56.38354492 30.77368164 C58.37658146 30.73726284 60.36996723 30.72186982 62.36328125 30.70703125 C63.56251221 30.6913208 64.76174316 30.67561035 65.99731445 30.65942383 C69 31 69 31 72 34 C45.6 33.67 19.2 33.34 -8 33 C-7.38647453 28.09179628 -6.85579383 23.92374528 -5.625 19.2578125 C-5.36203125 18.25492188 -5.0990625 17.25203125 -4.828125 16.21875 C-4.55484375 15.1978125 -4.2815625 14.176875 -4 13.125 C-3.72671875 12.08085937 -3.4534375 11.03671875 -3.171875 9.9609375 C-1.14466003 2.28932005 -1.14466003 2.28932005 0 0 Z " fill="#BDDA21" transform="translate(57,169)"/>
<path d="M0 0 C22.44 0 44.88 0 68 0 C68 0.33 68 0.66 68 1 C54.14 1 40.28 1 26 1 C25.3838829 13.10031455 25.3838829 13.10031455 24.77368164 25.20092773 C24.69438441 26.73682733 24.61488872 28.27271669 24.53515625 29.80859375 C24.49708862 30.58303833 24.459021 31.35748291 24.4197998 32.15539551 C24.13964934 37.48661711 23.5917478 42.67426979 23 48 C31.58 48 40.16 48 49 48 C48.505 48.99 48.505 48.99 48 50 C18.3 49.505 18.3 49.505 -12 49 C-10.87462262 39.996981 -10.87462262 39.996981 -9.765625 35.8203125 C-9.52070312 34.88960937 -9.27578125 33.95890625 -9.0234375 33 C-8.76820312 32.05125 -8.51296875 31.1025 -8.25 30.125 C-7.89035156 28.75988281 -7.89035156 28.75988281 -7.5234375 27.3671875 C-5.09947926 18.22111828 -2.53259596 9.11734547 0 0 Z " fill="#FC823B" transform="translate(78,88)"/>
<path d="M0 0 C1 2 1 2 2 6 C5.3 6.33 8.6 6.66 12 7 C13.32 12.61 14.64 18.22 16 24 C-5.45 24 -26.9 24 -49 24 C-47.68 18.39 -46.36 12.78 -45 7 C-33.78 6.67 -22.56 6.34 -11 6 C-10.34 4.35 -9.68 2.7 -9 1 C-7.700625 1.020625 -6.40125 1.04125 -5.0625 1.0625 C-3.70834367 1.08399454 -2.35243917 1.07148199 -1 1 C-0.67 0.67 -0.34 0.34 0 0 Z " fill="#E3E7F3" transform="translate(129,57)"/>
<path d="M0 0 C33.99 0 67.98 0 103 0 C103 0.33 103 0.66 103 1 C90.79 1 78.58 1 66 1 C66 2.98 66 4.96 66 7 C102.63 7 139.26 7 177 7 C177 5.02 177 3.04 177 1 C164.79 1 152.58 1 140 1 C140 0.67 140 0.34 140 0 C152.54 0 165.08 0 178 0 C178 2.97 178 5.94 178 9 C119.26 9 60.52 9 0 9 C0 6.03 0 3.06 0 0 Z " fill="#D86A2F" transform="translate(23,209)"/>
<path d="M0 0 C8.91 0 17.82 0 27 0 C27.495 2.475 27.495 2.475 28 5 C27.34 4.67 26.68 4.34 26 4 C26 3.34 26 2.68 26 2 C20.72 2 15.44 2 10 2 C9.86722656 4.48273437 9.73445313 6.96546875 9.59765625 9.5234375 C9.46579712 11.95950276 9.33315462 14.39552421 9.20043945 16.83154297 C9.10945318 18.50923323 9.01926622 20.18696707 8.92993164 21.86474609 C8.46429669 30.59995376 7.98291613 39.30429156 7 48 C7.84304687 47.98839844 8.68609375 47.97679687 9.5546875 47.96484375 C10.65039062 47.95582031 11.74609375 47.94679687 12.875 47.9375 C14.51082031 47.92009766 14.51082031 47.92009766 16.1796875 47.90234375 C19 48 19 48 21 49 C20.505 49.99 20.505 49.99 20 51 C9.44 50.67 -1.12 50.34 -12 50 C-10.875 39.875 -10.875 39.875 -9.87670898 36.21459961 C-9.65655624 35.39442856 -9.4364035 34.57425751 -9.20957947 33.72923279 C-8.97412918 32.87885941 -8.73867889 32.02848602 -8.49609375 31.15234375 C-8.13198143 29.80638878 -8.13198143 29.80638878 -7.76051331 28.4332428 C-6.99241767 25.59958747 -6.2151291 22.76855216 -5.4375 19.9375 C-4.9114968 18.0034217 -4.38610032 16.06917829 -3.86132812 14.13476562 C-2.58233918 9.42089326 -1.29091871 4.7106836 0 0 Z " fill="#FCA6B5" transform="translate(99,7)"/>
<path d="M0 0 C12.21 0 24.42 0 37 0 C37 2.31 37 4.62 37 7 C36.67 7 36.34 7 36 7 C36 9.97 36 12.94 36 16 C23.13 16 10.26 16 -3 16 C-2 7 -2 7 0 0 Z " fill="#FDF003" transform="translate(63,145)"/>
<path d="M0 0 C6.93 0 13.86 0 21 0 C20.67 5.28 20.34 10.56 20 16 C33.53 15.67 47.06 15.34 61 15 C61 15.66 61 16.32 61 17 C39.55 17 18.1 17 -4 17 C-2.68 11.39 -1.36 5.78 0 0 Z " fill="#BAC2D3" transform="translate(84,64)"/>
<path d="M0 0 C20.79 0 41.58 0 63 0 C63 1.98 63 3.96 63 6 C42.21 6 21.42 6 0 6 C0 4.02 0 2.04 0 0 Z " fill="#ED1C24" transform="translate(25,210)"/>
<path d="M0 0 C0.66 0 1.32 0 2 0 C2 0.66 2 1.32 2 2 C8.2297985 1.88256379 14.45941685 1.75772966 20.68896484 1.62768555 C22.80937313 1.58430248 24.92981712 1.54262993 27.05029297 1.50268555 C30.09353408 1.44506457 33.1365949 1.38134675 36.1796875 1.31640625 C37.60787308 1.29133751 37.60787308 1.29133751 39.06491089 1.26576233 C39.94567291 1.24581711 40.82643494 1.22587189 41.73388672 1.20532227 C42.89970779 1.18200584 42.89970779 1.18200584 44.08908081 1.15821838 C46.08556935 1.11216749 46.08556935 1.11216749 48 0 C48 0.66 48 1.32 48 2 C48.86278564 1.98428955 49.72557129 1.9685791 50.61450195 1.95239258 C53.81809267 1.90124045 57.02147515 1.8636384 60.2253418 1.83520508 C61.61147919 1.82012603 62.99756894 1.7996595 64.38354492 1.77368164 C66.37658146 1.73726284 68.36996723 1.72186982 70.36328125 1.70703125 C71.56251221 1.6913208 72.76174316 1.67561035 73.99731445 1.65942383 C77 2 77 2 80 5 C53.6 4.67 27.2 4.34 0 4 C0 2.68 0 1.36 0 0 Z " fill="#C46D32" transform="translate(49,198)"/>
<path d="M0 0 C2.14576637 -0.02685938 4.29162645 -0.04633088 6.4375 -0.0625 C7.63246094 -0.07410156 8.82742187 -0.08570313 10.05859375 -0.09765625 C13 0 13 0 14 1 C14.04063832 2.66617115 14.042721 4.33388095 14 6 C11.53630468 7.23184766 9.8105499 7.16732342 7.0625 7.1875 C6.18722656 7.20167969 5.31195313 7.21585938 4.41015625 7.23046875 C2 7 2 7 -1 5 C-0.67 3.35 -0.34 1.7 0 0 Z " fill="#030200" transform="translate(138,202)"/>
<path d="M0 0 C0.66 0 1.32 0 2 0 C1.34 2.31 0.68 4.62 0 7 C5.28 7 10.56 7 16 7 C16.33 5.35 16.66 3.7 17 2 C17.33 2 17.66 2 18 2 C18 3.65 18 5.3 18 7 C18.84304687 6.98839844 19.68609375 6.97679687 20.5546875 6.96484375 C21.65039062 6.95582031 22.74609375 6.94679688 23.875 6.9375 C25.51082031 6.92009766 25.51082031 6.92009766 27.1796875 6.90234375 C30 7 30 7 32 8 C31.67 8.66 31.34 9.32 31 10 C20.44 9.67 9.88 9.34 -1 9 C-0.67 6.03 -0.34 3.06 0 0 Z " fill="#C96F32" transform="translate(88,48)"/>
<path d="M0 0 C8.91 0 17.82 0 27 0 C27.33 1.65 27.66 3.3 28 5 C27.34 4.67 26.68 4.34 26 4 C26 3.34 26 2.68 26 2 C20.72 2 15.44 2 10 2 C9.67 2.99 9.34 3.98 9 5 C8.67 4.34 8.34 3.68 8 3 C5.67843403 2.59270772 3.3431213 2.25561323 1 2 C0.67 2.99 0.34 3.98 0 5 C-0.33 4.34 -0.66 3.68 -1 3 C-0.67 2.01 -0.34 1.02 0 0 Z " fill="#CE7736" transform="translate(99,7)"/>
<path d="M0 0 C1.76462683 3.08809695 2 4.23312136 2 8 C-2.62 8 -7.24 8 -12 8 C-11.67 7.34 -11.34 6.68 -11 6 C-7.37 6 -3.74 6 0 6 C0 4.02 0 2.04 0 0 Z " fill="#C57937" transform="translate(174,194)"/>
</svg>
