<?xml version="1.0" encoding="UTF-8"?>
<svg version="1.1" xmlns="http://www.w3.org/2000/svg" width="128" height="128">
<path d="M0 0 C10.12565357 7.92111938 16.70783668 18.51321544 19.6015625 31.03515625 C19.89232409 34.14487418 19.93584617 37.22574495 19.9140625 40.34765625 C19.90842285 41.19070312 19.9027832 42.03375 19.89697266 42.90234375 C19.77695347 49.05302972 19.17647667 54.38410415 16.6015625 60.03515625 C16.03308594 61.34806641 16.03308594 61.34806641 15.453125 62.6875 C8.61611884 76.77647513 -2.45451205 84.71666855 -16.796875 89.90234375 C-29.30071874 93.29558016 -43.06748369 91.30635592 -54.4765625 85.45703125 C-67.22995404 77.72136753 -75.17192531 67.34027444 -79.3984375 53.03515625 C-82.5533312 40.12307476 -80.11002674 27.10843592 -73.97265625 15.515625 C-66.51650487 3.76709863 -55.21615104 -5.30858528 -41.61523438 -8.5546875 C-26.68586996 -11.31694876 -12.53490007 -8.50711518 0 0 Z M-63.578125 12.70703125 C-70.66536756 21.77140157 -74.71675386 33.47928941 -73.3984375 45.03515625 C-71.0564848 58.37330872 -65.23177831 69.41980543 -54.0234375 77.34765625 C-49.691295 80.0681826 -45.32795551 81.73228561 -40.3984375 83.03515625 C-39.5940625 83.26203125 -38.7896875 83.48890625 -37.9609375 83.72265625 C-24.0482043 85.41933103 -12.26295404 81.93693047 -1.24609375 73.359375 C6.7988662 66.14824967 12.07510307 55.43147968 12.83984375 44.6875 C13.11398589 30.96596422 10.03049901 20.35152207 0.6015625 10.03515625 C-9.54331891 0.76295281 -20.21379959 -2.71233231 -33.85546875 -2.28125 C-45.50465321 -1.24091489 -55.57055045 4.21316675 -63.578125 12.70703125 Z " fill="#FC1212" transform="translate(94.3984375,22.96484375)"/>
<path d="M0 0 C2.7734375 2.1875 2.7734375 2.1875 5.375 5 C6.68597656 6.3921875 6.68597656 6.3921875 8.0234375 7.8125 C8.67570312 8.534375 9.32796875 9.25625 10 10 C11.08518111 9.08552154 12.16804738 8.16829593 13.25 7.25 C13.89324219 6.70601562 14.53648438 6.16203125 15.19921875 5.6015625 C17.12838168 3.95485964 17.12838168 3.95485964 19.0625 1.625 C21 0 21 0 24.0625 -0.4375 C27 0 27 0 28.875 1.125 C30.65952249 4.09920415 30.64846 5.56316202 30 9 C28.37903551 11.19083482 26.62940681 13.12048438 24.7265625 15.0703125 C23.03129415 16.96502419 22.01878138 18.68458778 21 21 C21.6496875 21.56847656 22.299375 22.13695313 22.96875 22.72265625 C29.7977091 29.03522801 29.7977091 29.03522801 30.8125 33.875 C30 37 30 37 28.375 39 C25.1269637 40.36759423 23.38661285 39.9095235 20 39 C17.4453125 36.93359375 17.4453125 36.93359375 15.125 34.4375 C14.34382813 33.61121094 13.56265625 32.78492188 12.7578125 31.93359375 C12.17773438 31.29550781 11.59765625 30.65742187 11 30 C10.32904297 30.58007812 10.32904297 30.58007812 9.64453125 31.171875 C8.39065047 32.251977 7.1326236 33.32727935 5.87109375 34.3984375 C4.35109644 35.69947904 2.85864631 37.03265334 1.375 38.375 C-1 40 -1 40 -3.5625 40.5 C-6.85590403 39.82442994 -8.0308929 38.69840603 -10 36 C-10.41796875 33.6875 -10.41796875 33.6875 -10 31 C-7.8125 28.32421875 -7.8125 28.32421875 -5 25.6875 C-4.071875 24.80449219 -3.14375 23.92148438 -2.1875 23.01171875 C-1.465625 22.34785156 -0.74375 21.68398437 0 21 C-1.38549276 17.81127797 -2.97687873 15.92452957 -5.5625 13.625 C-7.98845945 11.25486807 -8.97577721 10.06501908 -10.1875 6.8125 C-10 4 -10 4 -8.4375 1.625 C-5.27978743 -0.48014171 -3.74845486 -0.4875291 0 0 Z " fill="#FC0A0A" transform="translate(54,44)"/>
</svg>
