<?xml version="1.0" encoding="UTF-8"?>
<svg version="1.1" xmlns="http://www.w3.org/2000/svg" width="128" height="128">
<path d="M0 0 C1.06992188 0.474375 2.13984375 0.94875 3.2421875 1.4375 C19.75466286 9.51889971 30.60523995 22.82755446 37 40 C41.30117326 53.9146728 41.09524021 71.68480263 35 85 C34.525625 86.06992188 34.05125 87.13984375 33.5625 88.2421875 C25.53996296 104.63439059 12.16715507 115.82260053 -5 122 C-22.41824347 127.05634913 -41.59366026 125.04005104 -57.41772461 116.46020508 C-72.85764719 107.52172136 -82.86748581 93.36904589 -88.11328125 76.3984375 C-91.19627114 63.38867917 -90.58043482 47.19059274 -85 35 C-84.2884375 33.39511719 -84.2884375 33.39511719 -83.5625 31.7578125 C-75.48110029 15.24533714 -62.17244554 4.39476005 -45 -2 C-31.0853272 -6.30117326 -13.31519737 -6.09524021 0 0 Z M-39.875 49.0625 C-43.53800469 54.1260653 -43.65533105 58.93588025 -43 65 C-41.18823394 70.39388637 -37.48314334 73.75687503 -33 77 C-28.16935225 78.61021592 -22.8521888 78.95802887 -17.96484375 77.31640625 C-12.80219018 74.58190183 -8.85467001 70.56401003 -7 65 C-6.26511598 58.10895641 -6.83703009 53.58714383 -11 48 C-15.18017254 43.79799889 -18.79986938 41.86304733 -24.75 41.6875 C-31.39674729 41.77457529 -35.46996677 44.02996916 -39.875 49.0625 Z " fill="#A6D12D" transform="translate(89,4)"/>
<path d="M0 0 C0 15.18 0 30.36 0 46 C-2.97 46.99 -5.94 47.98 -9 49 C-13.24410386 51.67563069 -15.33151214 54.25798186 -17 59 C-18.05380517 66.65936441 -16.69374878 69.61250244 -13 77 C-23.56 87.56 -34.12 98.12 -45 109 C-54.07410898 104.46294551 -58.4931418 93.09828846 -62 84 C-66.33312185 70.11330573 -66.08428613 52.29126791 -60 39 C-59.2884375 37.39511719 -59.2884375 37.39511719 -58.5625 35.7578125 C-50.0505081 18.36552135 -35.9561438 7.84652597 -17.953125 1.25 C-11.78615772 -0.58480018 -6.80936515 0 0 0 Z " fill="#5E76AF" transform="translate(64,0)"/>
<path d="M0 0 C18.75633764 0 33.94759134 5.84091652 47.33984375 19.109375 C59.32275967 32.13045838 64 46.63302275 64 64 C48.82 64 33.64 64 18 64 C16.515 59.545 16.515 59.545 15 55 C12.31666632 50.7436776 9.64054784 48.89410116 5 47 C3.35 46.67 1.7 46.34 0 46 C0 30.82 0 15.64 0 0 Z " fill="#FEBE00" transform="translate(64,0)"/>
<path d="M0 0 C0.639375 0.268125 1.27875 0.53625 1.9375 0.8125 C5.90583953 2.3512439 9.96219041 3.65406347 14 5 C14 20.18 14 35.36 14 51 C-4.11437618 51 -18.9991466 45.87556043 -32 33 C-28.10023279 28.33125463 -24.04785356 23.90872191 -19.7265625 19.62890625 C-19.15795502 19.06171371 -18.58934753 18.49452118 -18.00350952 17.91014099 C-16.21303764 16.12520087 -14.41909516 14.34379744 -12.625 12.5625 C-11.39950677 11.34203061 -10.17424428 10.12132947 -8.94921875 8.90039062 C-5.96880226 5.93091244 -2.98527106 2.96459743 0 0 Z " fill="#C0E342" transform="translate(50,77)"/>
</svg>
