<?xml version="1.0" encoding="UTF-8"?>
<svg version="1.1" xmlns="http://www.w3.org/2000/svg" width="128" height="128">
<path d="M0 0 C11.23185252 7.62796315 18.16397221 18.61271749 21.25 31.8125 C22.89938755 47.22637564 19.87331377 60.42057414 10.25 72.8125 C2.15398245 81.79596563 -9.72085271 88.48481818 -21.94921875 89.1484375 C-37.09665517 89.45510648 -49.45957125 86.18515676 -61.00390625 75.78125 C-71.69794209 64.57990696 -75.40354761 51.4003089 -75.05859375 36.328125 C-74.44199153 24.05748503 -68.37664401 12.9149527 -59.5625 4.5 C-42.12456896 -10.01670499 -19.27100895 -11.33588762 0 0 Z M-47.75 6.8125 C-46.36651274 10.84767116 -44.87727226 13.87006652 -41.75 16.8125 C-38.74431977 16.94105252 -36.31579443 16.8216703 -33.375 16.4375 C-20.65645682 15.27730631 -9.38585067 17.33562782 1.25 24.8125 C3.9375 27.6875 3.9375 27.6875 5.25 29.8125 C4.26 30.8025 3.27 31.7925 2.25 32.8125 C-1.70232298 30.92265361 -5.32695812 28.59821821 -9.01953125 26.25 C-15.02295361 23.08939996 -20.56444387 22.52995246 -27.1875 22.6875 C-27.91904297 22.69652344 -28.65058594 22.70554687 -29.40429688 22.71484375 C-31.18634298 22.73813847 -32.96821759 22.7739981 -34.75 22.8125 C-33.66215032 26.06233135 -33.66215032 26.06233135 -31.75 28.8125 C-29.75176441 28.94631042 -27.75106963 29.04393815 -25.75 29.125 C-17.81811344 29.67352783 -11.95286565 31.85020748 -5.75 36.8125 C-5.09 36.8125 -4.43 36.8125 -3.75 36.8125 C-4.74 38.4625 -5.73 40.1125 -6.75 41.8125 C-9.18243769 40.87091122 -11.58095355 39.89130813 -13.9453125 38.7890625 C-14.72648437 38.42554688 -15.50765625 38.06203125 -16.3125 37.6875 C-17.42818359 37.15769531 -17.42818359 37.15769531 -18.56640625 36.6171875 C-20.98768548 35.5819779 -20.98768548 35.5819779 -24.75 35.8125 C-22.8148965 41.03727945 -18.22545126 43.82886583 -13.75 46.8125 C-13.60046875 47.57691406 -13.4509375 48.34132812 -13.296875 49.12890625 C-12.6092316 52.50327065 -11.20496583 54.12642224 -9 56.75 C-7.92492187 58.04357422 -7.92492187 58.04357422 -6.828125 59.36328125 C-6.14234375 60.17152344 -5.4565625 60.97976562 -4.75 61.8125 C-3.74941504 63.02034899 -2.74929461 64.22858324 -1.75 65.4375 C-1.09 66.22125 -0.43 67.005 0.25 67.8125 C3.97621504 66.35266251 5.37476581 64.54424849 7.375 61.125 C7.87257812 60.29613281 8.37015625 59.46726563 8.8828125 58.61328125 C13.5745515 49.00191877 14.0251243 36.95620415 10.625 26.8125 C6.04813702 16.12248436 -1.92334823 7.98539552 -12.671875 3.5390625 C-24.48514215 -0.59113993 -36.78365431 1.32932716 -47.75 6.8125 Z M-55.75 13.8125 C-63.80368807 23.18162379 -66.67172807 32.65959744 -66.1328125 44.9375 C-64.95064579 56.90392221 -58.9438326 65.67233939 -49.90234375 73.2734375 C-40.55959072 79.95409937 -29.89691518 80.89941188 -18.75 79.8125 C-13.90120282 78.64591368 -9.32758985 77.39008985 -5.75 73.8125 C-6.27207031 73.18085937 -6.79414062 72.54921875 -7.33203125 71.8984375 C-8.06808594 71.00382812 -8.80414063 70.10921875 -9.5625 69.1875 C-10.38105469 68.20007813 -11.19960937 67.21265625 -12.04296875 66.1953125 C-13.96975875 63.83180225 -15.77899052 61.41130075 -17.55078125 58.9296875 C-18.02088623 58.28725098 -18.49099121 57.64481445 -18.9753418 56.98291016 C-19.89687827 55.71851003 -20.79883328 54.43956587 -21.67895508 53.14599609 C-23.08524651 51.13083028 -23.08524651 51.13083028 -25.75 48.8125 C-29.94621325 48.8614484 -33.15175806 49.65355484 -36.75 51.8125 C-37.74 50.8225 -38.73 49.8325 -39.75 48.8125 C-39.42 47.8225 -39.09 46.8325 -38.75 45.8125 C-35.1875 44.125 -35.1875 44.125 -31.75 42.8125 C-32.74 41.1625 -33.73 39.5125 -34.75 37.8125 C-38.96912747 38.2919463 -41.54663178 38.97875119 -44.75 41.8125 C-46.6875 41 -46.6875 41 -48.75 39.8125 C-49.08 38.8225 -49.41 37.8325 -49.75 36.8125 C-49.193125 36.565 -48.63625 36.3175 -48.0625 36.0625 C-45.35028873 34.59643985 -43.11412635 32.78260529 -40.75 30.8125 C-41.74 29.4925 -42.73 28.1725 -43.75 26.8125 C-47.74500618 28.1822164 -50.55009492 30.06972422 -53.75 32.8125 C-55.07 32.1525 -56.39 31.4925 -57.75 30.8125 C-57.75 29.8225 -57.75 28.8325 -57.75 27.8125 C-56 26.20703125 -56 26.20703125 -53.75 24.625 C-53.0075 24.09519531 -52.265 23.56539062 -51.5 23.01953125 C-50.9225 22.62121094 -50.345 22.22289062 -49.75 21.8125 C-51.04224067 17.82809128 -52.33959557 16.17621527 -55.75 13.8125 Z " fill="#FB0E0F" transform="translate(90.75,23.1875)"/>
<path d="M0 0 C2.0022431 1.66853591 3.39942311 3.42291352 4.875 5.5625 C3.555 6.8825 2.235 8.2025 0.875 9.5625 C-3.07732298 7.67265361 -6.70195812 5.34821821 -10.39453125 3 C-16.65557663 -0.2962299 -21.91578271 -0.534496 -28.75 -0.125 C-36.29197218 0.14576639 -36.29197218 0.14576639 -39.33984375 -1.98828125 C-40.6875 -3.9375 -40.6875 -3.9375 -42.125 -7.4375 C-26.69921582 -11.17802081 -13.13918886 -8.88827482 0 0 Z " fill="#4B86BC" transform="translate(92.125,47.4375)"/>
<path d="M0 0 C11.06670576 -0.67411406 18.10171924 1.61149074 27 8 C26.75 9.875 26.75 9.875 26 12 C23.9375 13.25 23.9375 13.25 22 14 C21.13375 13.38125 20.2675 12.7625 19.375 12.125 C15.48331566 9.67468023 12.11463317 7.69054149 7.4375 8.375 C5 8 5 8 3.578125 6.2265625 C2.30350496 4.18573828 1.11751657 2.13041456 0 0 Z " fill="#4884BA" transform="translate(60,52)"/>
<path d="M0 0 C2.4375 2.125 2.4375 2.125 4 5 C4 8.54334961 3.64741834 10.25666783 1.3125 12.9375 C-1.89943934 14.41325591 -3.66474802 14.06444212 -7 13 C-8.9375 11.3125 -8.9375 11.3125 -10 9 C-9.87177883 5.85858144 -9.4995896 3.78882568 -7.8125 1.125 C-5.02330727 -0.60622307 -3.20853478 -0.52384241 0 0 Z " fill="#4782B6" transform="translate(67,78)"/>
<path d="M0 0 C2.52588702 2.36292656 3.88820837 3.66462511 5 7 C2.03 9.31 -0.94 11.62 -4 14 C-8 12 -8 12 -10 9 C-8.71372289 7.82739389 -7.42080217 6.6620717 -6.125 5.5 C-5.40570313 4.8503125 -4.68640625 4.200625 -3.9453125 3.53125 C-2 2 -2 2 0 2 C0 1.34 0 0.68 0 0 Z " fill="#4C85B8" transform="translate(41,43)"/>
<path d="M0 0 C2.7751066 1.18520178 3.53581069 3.1893621 4.875 5.80078125 C1.2624638 7.64905559 -2.3339881 9.3512767 -6.125 10.80078125 C-7.625 9.48828125 -7.625 9.48828125 -9.125 7.80078125 C-9.125 4.80078125 -9.125 4.80078125 -7.734375 3.37890625 C-7.12078125 2.940625 -6.5071875 2.50234375 -5.875 2.05078125 C-5.27171875 1.6021875 -4.6684375 1.15359375 -4.046875 0.69140625 C-2.125 -0.19921875 -2.125 -0.19921875 0 0 Z " fill="#4A85BB" transform="translate(50.125,55.19921875)"/>
<path d="M0 0 C1.8125 2.5625 1.8125 2.5625 3 5 C1.73160474 5.50615298 0.46016898 6.00469099 -0.8125 6.5 C-1.87404297 6.91765625 -1.87404297 6.91765625 -2.95703125 7.34375 C-5 8 -5 8 -8 8 C-9.6875 6.5 -9.6875 6.5 -11 5 C-10.03558469 2.58896173 -9.31202953 1.22595242 -7.1875 -0.3125 C-4.30294824 -1.21907341 -2.82448315 -1.08633967 0 0 Z " fill="#4A85B9" transform="translate(61,67)"/>
</svg>
