<?xml version="1.0" encoding="UTF-8"?>
<svg version="1.1" xmlns="http://www.w3.org/2000/svg" width="128" height="128">
<path d="M0 0 C0.886875 0.39058594 1.77375 0.78117187 2.6875 1.18359375 C15.11320112 7.27563888 24.1811971 17.67574423 28.8125 30.6875 C32.95273673 44.61817886 31.44257061 58.73998057 24.5703125 71.55859375 C16.43639352 84.20461206 5.49792946 92.2715208 -9 96 C-22.94813228 98.50787728 -36.28205407 96.06491158 -48 88 C-59.17555858 79.56902713 -66.44660266 68.86993348 -69 55 C-70.58045323 40.64796305 -68.08786619 27.524468 -59 16 C-58.48695312 15.31292969 -57.97390625 14.62585938 -57.4453125 13.91796875 C-44.42656436 -2.37103909 -19.18987705 -8.76204456 0 0 Z M-51.87890625 18.015625 C-60.13203445 28.52336717 -63.17882346 39.71556641 -62 53 C-59.71566234 65.36144748 -53.50819637 75.20505123 -43.3046875 82.56640625 C-32.27783471 89.42548247 -20.2027739 90.72033836 -7.53125 88.3515625 C4.43662972 84.74269155 13.740904 76.19058354 19.8125 65.375 C24.86111683 54.47533717 24.93142245 42.8082265 21.1796875 31.53515625 C16.24895038 19.41548727 7.47785608 11.13069831 -4.38671875 5.9453125 C-21.26232657 -0.15916746 -39.81383775 5.07264091 -51.87890625 18.015625 Z " fill="#14D414" transform="translate(82,18)"/>
<path d="M0 0 C2 3 2 3 1.99853516 6.26416016 C0.71198653 11.07755064 -1.48201655 13.35140023 -4.9765625 16.7734375 C-5.5800351 17.38265045 -6.18350769 17.9918634 -6.80526733 18.61953735 C-8.08074873 19.89908806 -9.36378444 21.17114762 -10.65380859 22.43603516 C-12.6191541 24.36924967 -14.55043024 26.33238784 -16.48046875 28.30078125 C-17.72724751 29.54359492 -18.97588635 30.78454595 -20.2265625 32.0234375 C-20.79976227 32.60878265 -21.37296204 33.19412781 -21.96353149 33.79721069 C-24.86289449 36.59809467 -26.69531708 37.90775805 -30.63452148 39.1003418 C-34.71851753 38.97857739 -35.77596632 38.23091808 -38.62109375 35.37109375 C-39.41064453 34.58283203 -40.20019531 33.79457031 -41.01367188 32.98242188 C-41.81353516 32.14259766 -42.61339844 31.30277344 -43.4375 30.4375 C-44.26443359 29.62474609 -45.09136719 28.81199219 -45.94335938 27.97460938 C-51.91707398 21.87263995 -51.91707398 21.87263995 -52.30102539 17.83227539 C-52 15 -52 15 -50.875 13.125 C-48.06453492 11.43872095 -46.24097923 11.61825004 -43 12 C-40.78423462 13.6198807 -39.03167339 15.08296425 -37.125 17 C-36.62742187 17.47695312 -36.12984375 17.95390625 -35.6171875 18.4453125 C-34.39862545 19.61700678 -33.19748675 20.80677477 -32 22 C-28.34968275 20.46728453 -26.06060249 18.27846123 -23.3046875 15.46484375 C-21.98404297 14.12776367 -21.98404297 14.12776367 -20.63671875 12.76367188 C-19.72535156 11.83103516 -18.81398437 10.89839844 -17.875 9.9375 C-16.06210385 8.09027833 -14.24710642 6.24511579 -12.4296875 4.40234375 C-11.22675049 3.17245728 -11.22675049 3.17245728 -9.99951172 1.91772461 C-6.51316036 -1.42602263 -4.61354195 -1.15338549 0 0 Z " fill="#0BD30B" transform="translate(89,47)"/>
<path d="M0 0 C2.475 0.99 2.475 0.99 5 2 C5 2.66 5 3.32 5 4 C4.01 4.33 3.02 4.66 2 5 C1.67 5.66 1.34 6.32 1 7 C0.01 7 -0.98 7 -2 7 C-1.42415568 4.61435923 -0.77772405 2.33317216 0 0 Z " fill="#0AD109" transform="translate(39,21)"/>
<path d="M0 0 C0.33 0.99 0.66 1.98 1 3 C0.01 3.495 0.01 3.495 -1 4 C-1.99 5.485 -1.99 5.485 -3 7 C-3.99 6.34 -4.98 5.68 -6 5 C-4.87312259 1.61936778 -3.78825335 0 0 0 Z " fill="#1CD21C" transform="translate(39,21)"/>
<path d="M0 0 C0 0.66 0 1.32 0 2 C-0.99 2 -1.98 2 -3 2 C-3.33 2.66 -3.66 3.32 -4 4 C-5.32 4 -6.64 4 -8 4 C-8 3.34 -8 2.68 -8 2 C-4.91190305 0.23537317 -3.76687864 0 0 0 Z " fill="#22D421" transform="translate(60,110)"/>
</svg>
